<?xml version="1.0" encoding="utf-8"?>
<!-- Generator: Adobe Illustrator 18.1.0, SVG Export Plug-In . SVG Version: 6.00 Build 0)  -->
<svg version="1.1" id="Calque_1" xmlns="http://www.w3.org/2000/svg" xmlns:xlink="http://www.w3.org/1999/xlink" x="0px" y="0px"
	 viewBox="0 0 297.6 297.6" enable-background="new 0 0 297.6 297.6" xml:space="preserve">
<g id="Calque_2">
</g>
<g id="Calque_1_1_">
	<g>
		<path fill="none" stroke="#FFFFFF" d="M64.3,94v-1.1l4.8-6c0.3-0.4,0.7-0.8,1-1.1h-5.2v-1.1h6.7v1.1l-5.2,6.5l-0.6,0.7h6V94
			L64.3,94L64.3,94z"/>
		<path fill="none" stroke="#FFFFFF" d="M72.4,91.2V90h3.5v1.1H72.4z"/>
		<path fill="none" stroke="#FFFFFF" d="M77.3,94v-9.3h3.5c0.6,0,1.1,0,1.4,0.1c0.4,0.1,0.8,0.2,1.1,0.4c0.3,0.2,0.6,0.5,0.8,0.9
			c0.2,0.4,0.3,0.8,0.3,1.3c0,0.8-0.3,1.5-0.8,2c-0.5,0.5-1.4,0.8-2.7,0.8h-2.4V94H77.3z M78.6,89.1H81c0.8,0,1.4-0.2,1.7-0.4
			c0.3-0.3,0.5-0.7,0.5-1.2c0-0.4-0.1-0.7-0.3-1c-0.2-0.3-0.4-0.5-0.8-0.5c-0.2-0.1-0.6-0.1-1.1-0.1h-2.4V89.1z"/>
		<path fill="none" stroke="#FFFFFF" d="M85.8,94v-6.7h1v1c0.3-0.5,0.5-0.8,0.7-1c0.2-0.2,0.5-0.2,0.7-0.2c0.4,0,0.8,0.1,1.2,0.4
			l-0.4,1c-0.3-0.2-0.6-0.3-0.8-0.3s-0.5,0.1-0.7,0.2c-0.2,0.2-0.3,0.3-0.4,0.6C87.1,89.5,87,90,87,90.4V94H85.8z"/>
		<path fill="none" stroke="#FFFFFF" d="M89.8,90.6c0-1.2,0.3-2.2,1-2.8c0.6-0.5,1.3-0.8,2.1-0.8c0.9,0,1.7,0.3,2.3,0.9
			s0.9,1.5,0.9,2.5c0,0.9-0.1,1.6-0.4,2.1c-0.3,0.5-0.6,0.9-1.1,1.2c-0.5,0.3-1,0.4-1.6,0.4c-1,0-1.7-0.3-2.3-0.9
			C90.1,92.6,89.8,91.7,89.8,90.6z M91,90.6c0,0.9,0.2,1.5,0.6,1.9c0.4,0.4,0.9,0.6,1.4,0.6s1-0.2,1.4-0.6c0.4-0.4,0.6-1.1,0.6-2
			c0-0.8-0.2-1.5-0.6-1.9C94,88.2,93.5,88,93,88s-1,0.2-1.4,0.6C91.1,89.1,91,89.7,91,90.6z"/>
		<path fill="none" stroke="#FFFFFF" d="M96,96.6l0.2-1c0.2,0.1,0.4,0.1,0.5,0.1c0.2,0,0.4-0.1,0.5-0.2c0.1-0.2,0.2-0.5,0.2-1.2
			v-7.1h1.1v7.1c0,0.8-0.1,1.4-0.3,1.7c-0.3,0.4-0.7,0.6-1.4,0.6C96.6,96.7,96.3,96.7,96,96.6z M97.4,86v-1.3h1.1V86H97.4z"/>
		<path fill="none" stroke="#FFFFFF" d="M105,91.8l1.2,0.2c-0.2,0.7-0.5,1.2-1,1.6c-0.5,0.4-1.1,0.6-1.9,0.6c-1,0-1.8-0.3-2.4-0.9
			c-0.6-0.6-0.9-1.5-0.9-2.6c0-1.1,0.3-2,0.9-2.6c0.6-0.6,1.3-1,2.3-1c0.9,0,1.7,0.3,2.2,0.9s0.9,1.5,0.9,2.6c0,0.1,0,0.2,0,0.3
			h-5.1c0,0.7,0.3,1.3,0.6,1.7c0.4,0.4,0.9,0.6,1.4,0.6c0.4,0,0.8-0.1,1.1-0.3C104.6,92.6,104.8,92.3,105,91.8z M101.2,90h3.8
			c-0.1-0.6-0.2-1-0.4-1.3c-0.3-0.4-0.8-0.7-1.4-0.7c-0.5,0-1,0.2-1.3,0.5C101.4,88.9,101.3,89.3,101.2,90z"/>
		<path fill="none" stroke="#FFFFFF" d="M112,91.5l1.1,0.2c-0.1,0.8-0.4,1.4-1,1.8c-0.5,0.4-1.1,0.7-1.9,0.7c-0.9,0-1.7-0.3-2.2-0.9
			c-0.6-0.6-0.9-1.5-0.9-2.6c0-0.7,0.1-1.4,0.3-1.9c0.3-0.5,0.6-1,1.1-1.2c0.5-0.3,1-0.4,1.6-0.4c0.7,0,1.3,0.2,1.8,0.6
			s0.8,0.9,0.9,1.6l-1.1,0.2c-0.1-0.4-0.3-0.8-0.6-1c-0.3-0.2-0.6-0.3-1-0.3c-0.6,0-1,0.2-1.4,0.6s-0.5,1.1-0.5,2
			c0,0.9,0.2,1.6,0.5,2c0.3,0.4,0.8,0.6,1.4,0.6c0.4,0,0.8-0.1,1.1-0.4C111.7,92.5,111.9,92,112,91.5z"/>
		<path fill="none" stroke="#FFFFFF" d="M116.6,92.9l0.2,1c-0.3,0.1-0.6,0.1-0.9,0.1c-0.4,0-0.7-0.1-1-0.2c-0.2-0.1-0.4-0.3-0.5-0.5
			c-0.1-0.2-0.1-0.7-0.1-1.4v-3.9h-0.8v-0.9h0.8v-1.7l1.1-0.7v2.4h1.1v0.9h-1.1v4c0,0.3,0,0.5,0.1,0.6s0.1,0.2,0.2,0.2
			c0.1,0.1,0.2,0.1,0.4,0.1C116.2,93,116.4,93,116.6,92.9z"/>
		<path fill="none" stroke="#FFFFFF" d="M64,106.5l2.4-6.1h0.9l2.5,6.1h-0.9l-0.7-1.9h-2.6l-0.7,1.9H64z M65.8,104h2.1l-0.6-1.7
			c-0.2-0.5-0.3-1-0.4-1.3c-0.1,0.4-0.2,0.8-0.3,1.2L65.8,104z"/>
		<path fill="none" stroke="#FFFFFF" d="M70.3,106.5v-6.1H71v6.1H70.3z"/>
		<path fill="none" stroke="#FFFFFF" d="M72.2,106.5v-6.1h0.8v6.1H72.2z"/>
		<path fill="none" stroke="#FFFFFF" d="M73.8,104.6v-0.8h2.3v0.8H73.8z"/>
		<path fill="none" stroke="#FFFFFF" d="M77.1,106.5v-6.1h2.3c0.4,0,0.7,0,0.9,0.1c0.3,0.1,0.5,0.2,0.8,0.3c0.2,0.1,0.4,0.3,0.5,0.6
			c0.1,0.3,0.2,0.5,0.2,0.8c0,0.5-0.2,1-0.5,1.3c-0.3,0.4-0.9,0.5-1.8,0.5h-1.6v2.5L77.1,106.5L77.1,106.5z M77.9,103.3h1.6
			c0.5,0,0.9-0.1,1.1-0.3c0.2-0.2,0.3-0.5,0.3-0.8c0-0.3-0.1-0.5-0.2-0.7c-0.1-0.2-0.3-0.3-0.5-0.3c-0.1,0-0.4-0.1-0.8-0.1h-1.6
			V103.3z"/>
		<path fill="none" stroke="#FFFFFF" d="M82.7,106.5v-6.1h0.8v6.1H82.7z"/>
		<path fill="none" stroke="#FFFFFF" d="M87.5,105.9c-0.3,0.2-0.5,0.4-0.8,0.5c-0.3,0.1-0.5,0.2-0.8,0.2c-0.5,0-0.9-0.1-1.1-0.3
			c-0.3-0.3-0.4-0.5-0.4-0.9c0-0.2,0.1-0.4,0.2-0.6s0.2-0.3,0.4-0.4c0.2-0.1,0.3-0.2,0.5-0.3c0.2,0,0.4-0.1,0.7-0.1
			c0.6-0.1,1-0.2,1.3-0.3c0-0.1,0-0.2,0-0.2c0-0.3-0.1-0.5-0.2-0.6c-0.2-0.2-0.5-0.3-0.9-0.3c-0.3,0-0.6,0.1-0.8,0.2
			c-0.2,0.1-0.3,0.3-0.4,0.7l-0.7-0.1c0.1-0.3,0.2-0.6,0.3-0.8c0.1-0.2,0.4-0.3,0.7-0.4c0.3-0.1,0.6-0.2,1-0.2c0.4,0,0.7,0,0.9,0.1
			c0.2,0.1,0.4,0.2,0.5,0.3c0.1,0.2,0.2,0.3,0.2,0.5c0,0.1,0,0.3,0,0.7v1c0,0.7,0,1.1,0.1,1.3c0,0.2,0.1,0.3,0.2,0.5h-0.8
			C87.6,106.3,87.5,106.2,87.5,105.9z M87.4,104.3c-0.3,0.1-0.7,0.2-1.2,0.3c-0.3,0-0.5,0.1-0.7,0.2c-0.1,0.1-0.2,0.1-0.3,0.3
			c-0.1,0.1-0.1,0.2-0.1,0.3c0,0.2,0.1,0.4,0.2,0.5s0.4,0.2,0.7,0.2s0.5-0.1,0.8-0.2c0.2-0.1,0.4-0.3,0.5-0.5
			c0.1-0.2,0.1-0.4,0.1-0.8V104.3z"/>
		<path fill="none" stroke="#FFFFFF" d="M91,105.8l0.1,0.7c-0.2,0-0.4,0.1-0.6,0.1c-0.3,0-0.5,0-0.6-0.1c-0.2-0.1-0.3-0.2-0.3-0.3
			c-0.1-0.1-0.1-0.4-0.1-0.9v-2.6H89V102h0.5v-1.1l0.8-0.4v1.6H91v0.6h-0.8v2.6c0,0.2,0,0.3,0,0.4c0,0.1,0.1,0.1,0.1,0.2
			c0.1,0,0.2,0.1,0.3,0.1C90.8,105.8,90.9,105.8,91,105.8z"/>
		<path fill="none" stroke="#FFFFFF" d="M94.8,105l0.8,0.1c-0.1,0.4-0.3,0.8-0.7,1c-0.3,0.3-0.8,0.4-1.3,0.4c-0.6,0-1.2-0.2-1.6-0.6
			c-0.4-0.4-0.6-1-0.6-1.7c0-0.8,0.2-1.3,0.6-1.7c0.4-0.4,0.9-0.6,1.5-0.6s1.1,0.2,1.5,0.6c0.4,0.4,0.6,1,0.6,1.7c0,0,0,0.1,0,0.2
			h-3.3c0,0.5,0.2,0.9,0.4,1.1s0.6,0.4,0.9,0.4c0.3,0,0.5-0.1,0.7-0.2C94.5,105.5,94.7,105.4,94.8,105z M92.3,103.8h2.5
			c0-0.4-0.1-0.7-0.3-0.8c-0.3-0.3-0.5-0.4-0.9-0.4c-0.3,0-0.6,0.1-0.9,0.3C92.5,103.1,92.4,103.5,92.3,103.8z"/>
		<path fill="none" stroke="#FFFFFF" d="M96.7,106.5v-3.9H96V102h0.7v-0.5c0-0.3,0-0.5,0.1-0.7c0.1-0.2,0.2-0.3,0.4-0.5
			c0.2-0.1,0.4-0.2,0.8-0.2c0.2,0,0.4,0,0.7,0.1l-0.1,0.7c-0.2,0-0.3,0-0.4,0c-0.2,0-0.4,0.1-0.5,0.2s-0.1,0.3-0.1,0.5v0.4h0.9v0.6
			h-0.9v3.9H96.7L96.7,106.5z"/>
		<path fill="none" stroke="#FFFFFF" d="M98.6,104.3c0-0.8,0.2-1.4,0.7-1.8c0.4-0.3,0.9-0.5,1.4-0.5c0.6,0,1.1,0.2,1.5,0.6
			c0.4,0.4,0.6,1,0.6,1.7c0,0.6-0.1,1-0.3,1.4c-0.2,0.3-0.4,0.6-0.8,0.8c-0.3,0.2-0.7,0.3-1.1,0.3c-0.6,0-1.1-0.2-1.5-0.6
			C98.8,105.6,98.6,105,98.6,104.3z M99.4,104.3c0,0.6,0.1,1,0.4,1.3s0.6,0.4,1,0.4c0.4,0,0.7-0.1,0.9-0.4c0.3-0.3,0.4-0.7,0.4-1.3
			c0-0.5-0.1-1-0.4-1.2c-0.3-0.3-0.6-0.4-0.9-0.4c-0.4,0-0.7,0.1-1,0.4C99.5,103.3,99.4,103.7,99.4,104.3z"/>
		<path fill="none" stroke="#FFFFFF" d="M103.7,106.5V102h0.7v0.7c0.2-0.3,0.3-0.5,0.5-0.6c0.2-0.1,0.3-0.2,0.5-0.2
			c0.3,0,0.5,0.1,0.8,0.3l-0.3,0.7c-0.2-0.1-0.4-0.2-0.5-0.2s-0.3,0.1-0.4,0.2s-0.2,0.2-0.3,0.4c-0.1,0.3-0.1,0.6-0.1,0.9v2.3
			L103.7,106.5L103.7,106.5z"/>
		<path fill="none" stroke="#FFFFFF" d="M106.5,106.5V102h0.7v0.6c0.1-0.2,0.3-0.4,0.6-0.5c0.2-0.1,0.5-0.2,0.8-0.2
			c0.3,0,0.6,0.1,0.8,0.2c0.2,0.1,0.3,0.3,0.4,0.6c0.3-0.5,0.8-0.8,1.4-0.8c0.4,0,0.8,0.1,1,0.4c0.2,0.3,0.3,0.6,0.3,1.1v3.1h-0.8
			v-2.8c0-0.3,0-0.5-0.1-0.7c-0.1-0.1-0.1-0.3-0.3-0.3c-0.1-0.1-0.3-0.1-0.4-0.1c-0.3,0-0.6,0.1-0.8,0.3c-0.2,0.2-0.3,0.5-0.3,1v2.6
			h-0.8v-2.9c0-0.3-0.1-0.6-0.2-0.8c-0.1-0.2-0.3-0.3-0.6-0.3c-0.2,0-0.4,0.1-0.6,0.2c-0.2,0.1-0.3,0.3-0.4,0.5
			c-0.1,0.2-0.1,0.5-0.1,0.9v2.3L106.5,106.5L106.5,106.5z"/>
		<path fill="none" stroke="#FFFFFF" d="M113.4,105.2l0.7-0.1c0,0.3,0.2,0.5,0.3,0.7c0.2,0.2,0.4,0.3,0.8,0.3c0.3,0,0.6-0.1,0.8-0.2
			c0.2-0.1,0.3-0.3,0.3-0.5c0-0.2-0.1-0.3-0.2-0.4c-0.1-0.1-0.3-0.2-0.8-0.3c-0.5-0.1-0.9-0.3-1.1-0.3s-0.4-0.3-0.5-0.4
			c-0.1-0.2-0.2-0.4-0.2-0.6c0-0.2,0-0.4,0.1-0.5c0.1-0.2,0.2-0.3,0.4-0.4c0.1-0.1,0.3-0.2,0.5-0.2c0.2-0.1,0.4-0.1,0.6-0.1
			c0.3,0,0.7,0.1,0.9,0.2c0.3,0.1,0.4,0.2,0.6,0.4c0.1,0.2,0.2,0.4,0.3,0.7l-0.7,0.1c0-0.2-0.1-0.4-0.3-0.5
			c-0.2-0.1-0.4-0.2-0.7-0.2c-0.3,0-0.6,0.1-0.7,0.2s-0.2,0.3-0.2,0.4c0,0.1,0,0.2,0.1,0.3c0.1,0.1,0.2,0.2,0.3,0.2
			c0.1,0,0.3,0.1,0.7,0.2c0.5,0.1,0.9,0.3,1.1,0.3c0.2,0.1,0.4,0.2,0.5,0.4c0.1,0.2,0.2,0.4,0.2,0.6c0,0.3-0.1,0.5-0.2,0.7
			c-0.2,0.2-0.3,0.4-0.6,0.5c-0.3,0.1-0.6,0.2-1,0.2c-0.6,0-1-0.1-1.3-0.3C113.6,106,113.5,105.6,113.4,105.2z"/>
	</g>
	<rect x="64" y="97.4" fill="none" stroke="#FFFFFF" stroke-miterlimit="10" width="53.1" height="0.6"/>
</g>
</svg>
